<svg width="1401" height="1400" viewBox="0 0 1401 1400" fill="none" xmlns="http://www.w3.org/2000/svg">
<rect width="1400" height="1400" transform="translate(0.996094)" fill="#0C0C0C"/>
<path d="M724.907 200.99C767.67 205.562 793.893 221.565 808.819 252.09C818.098 270.917 819.846 278.851 819.981 301.174C819.981 321.479 817.695 331.968 810.298 346.761C805.861 355.501 792.144 369.083 783.672 373.387C770.359 380.11 763.636 381.589 748.978 380.917C737.144 380.379 734.186 379.841 727.865 376.614C717.914 371.369 710.653 365.184 701.777 354.426C691.019 341.247 686.178 330.355 686.178 318.924C686.178 302.653 694.381 291.76 714.149 282.078C722.486 277.91 725.714 277.103 735.262 276.565C745.078 276.027 747.364 276.43 753.819 279.389C762.022 283.154 767.132 288.937 771.032 299.157C774.528 308.435 774.394 314.218 770.225 319.059C765.653 324.438 760.677 326.32 751.264 325.782L743.33 325.379V311.932V298.484L738.623 298.081C720.873 296.736 709.039 329.413 721.949 344.743C730.017 354.291 750.188 357.922 763.232 352.005C770.897 348.509 784.076 335.599 787.572 328.338C791.203 320.538 792.817 306.822 792.144 290.147C791.203 269.572 788.514 264.193 769.687 245.232C750.323 225.733 745.885 223.582 724.1 222.775C695.188 221.699 674.479 227.213 652.829 241.332C604.687 273.068 578.599 322.286 569.185 399.071C567.034 415.881 568.11 454.34 571.202 471.284C579.002 514.585 601.728 586.529 644.491 701.908C650.542 718.18 657.804 737.813 660.628 745.612C669.369 769.683 691.154 826.835 703.794 858.706C711.594 878.608 716.973 890.173 719.125 892.19C722.486 895.417 722.621 895.417 725.176 892.728C731.362 886.542 738.354 868.791 779.638 755.698C847.682 569.72 870.947 512.702 893.807 476.798C916.668 441.162 944.908 411.846 968.441 399.475C994.394 385.893 1038.64 375.673 1090.95 371.1C1125.91 368.142 1124.16 367.739 1114.48 376.748C1031.51 454.206 1010.53 477.604 993.587 511.358C970.458 557.348 890.983 761.48 758.122 1115.42C741.582 1159.39 727.731 1196.51 727.193 1197.72C725.579 1201.75 722.621 1200.41 718.452 1193.95C711.325 1182.66 695.995 1145 617.327 946.652C580.212 852.923 556.679 801.15 539.466 775.197C529.515 760.001 506.386 736.334 489.845 724.097C475.725 713.608 455.151 703.656 440.09 699.891C431.349 697.74 422.608 696.798 403.109 696.26C389.124 695.857 376.349 694.916 375.004 694.109C372.449 692.898 372.583 692.629 376.349 689.537C383.61 683.62 393.158 681.737 414.539 681.871C449.099 682.14 467.657 689.805 507.999 720.735C522.926 732.165 538.391 742.923 539.87 742.923C544.711 742.923 506.117 649.06 478.953 594.597C452.865 542.556 414.002 491.859 381.593 467.519C369.625 458.643 347.033 447.079 320.407 436.321C280.468 420.184 275.089 416.15 287.192 410.771C301.446 404.45 344.075 401.088 374.869 403.912C436.862 409.695 469.674 427.445 534.894 490.245C558.158 512.702 562.865 517.005 563.403 516.468C563.672 516.199 561.789 507.861 559.1 498.045C552.51 472.494 550.359 456.895 549.418 426.101C547.804 372.445 554.528 336.944 573.354 298.35C592.046 260.024 624.723 223.985 652.963 210.538C672.058 201.393 697.474 198.166 724.907 200.99Z" fill="white"/>
</svg>
