<svg width="2882" height="1485" viewBox="0 0 2882 1485" fill="none" xmlns="http://www.w3.org/2000/svg">
<path d="M643.427 200.99C686.189 205.562 712.412 221.565 727.339 252.09C736.617 270.917 738.366 278.851 738.5 301.174C738.5 321.479 736.214 331.968 728.818 346.761C724.38 355.501 710.664 369.083 702.192 373.387C688.879 380.11 682.155 381.589 667.497 380.917C655.664 380.379 652.705 379.841 646.385 376.614C636.434 371.369 629.172 365.184 620.297 354.426C609.539 341.247 604.698 330.355 604.698 318.924C604.698 302.653 612.901 291.76 632.669 282.078C641.006 277.91 644.233 277.103 653.781 276.565C663.598 276.027 665.884 276.43 672.339 279.389C680.542 283.154 685.652 288.937 689.551 299.157C693.048 308.435 692.913 314.218 688.744 319.059C684.172 324.438 679.197 326.32 669.784 325.782L661.85 325.379V311.932V298.484L657.143 298.081C639.392 296.736 627.559 329.413 640.468 344.743C648.537 354.291 668.708 357.922 681.752 352.005C689.417 348.509 702.595 335.599 706.092 328.338C709.723 320.538 711.336 306.822 710.664 290.147C709.723 269.572 707.033 264.193 688.207 245.232C668.842 225.733 664.405 223.582 642.62 222.775C613.708 221.699 592.999 227.213 571.348 241.332C523.206 273.068 497.118 322.286 487.705 399.071C485.553 415.881 486.629 454.34 489.722 471.284C497.522 514.585 520.248 586.529 563.011 701.908C569.062 718.18 576.324 737.813 579.148 745.612C587.889 769.683 609.673 826.835 622.314 858.706C630.114 878.608 635.493 890.173 637.644 892.19C641.006 895.417 641.141 895.417 643.696 892.728C649.881 886.542 656.874 868.791 698.158 755.698C766.202 569.72 789.466 512.702 812.327 476.798C835.187 441.162 863.427 411.846 886.96 399.475C912.914 385.893 957.156 375.673 1009.47 371.1C1044.43 368.142 1042.68 367.739 1033 376.748C950.029 454.206 929.051 477.604 912.107 511.358C888.977 557.348 809.503 761.48 676.642 1115.42C660.101 1159.39 646.251 1196.51 645.713 1197.72C644.099 1201.75 641.14 1200.41 636.972 1193.95C629.845 1182.66 614.514 1145 535.847 946.652C498.732 852.923 475.199 801.15 457.986 775.197C448.035 760.001 424.905 736.334 408.365 724.097C394.245 713.608 373.67 703.656 358.609 699.891C349.868 697.74 341.127 696.798 321.629 696.26C307.643 695.857 294.868 694.916 293.523 694.109C290.968 692.898 291.103 692.629 294.868 689.537C302.13 683.62 311.678 681.737 333.059 681.871C367.619 682.14 386.176 689.805 426.519 720.735C441.446 732.165 456.91 742.923 458.389 742.923C463.23 742.923 424.636 649.06 397.472 594.597C371.384 542.556 332.521 491.859 300.113 467.519C288.144 458.643 265.553 447.079 238.927 436.321C198.988 420.184 193.609 416.15 205.711 410.771C219.966 404.45 262.594 401.088 293.389 403.912C355.382 409.695 388.194 427.445 453.414 490.245C476.678 512.702 481.385 517.005 481.922 516.468C482.191 516.199 480.309 507.861 477.619 498.045C471.03 472.494 468.878 456.895 467.937 426.101C466.323 372.445 473.047 336.944 491.874 298.35C510.566 260.024 543.243 223.985 571.483 210.538C590.578 201.393 615.994 198.166 643.427 200.99Z" fill="white"/>
<path d="M1096.68 938.4H1343.08C1355.34 938.4 1364.41 938.933 1370.28 940C1376.68 940.533 1383.88 942.933 1391.88 947.2C1406.28 954.667 1413.48 975.467 1413.48 1009.6C1413.48 1046.93 1403.61 1068.8 1383.88 1075.2C1374.81 1078.4 1360.94 1080 1342.28 1080H1025.48C988.145 1080 966.278 1069.87 959.878 1049.6C956.678 1041.07 955.078 1027.47 955.078 1008.8V564C955.078 536.8 960.145 518.4 970.278 508.8C980.411 498.667 999.611 493.6 1027.88 493.6H1343.08C1355.34 493.6 1364.41 494.133 1370.28 495.2C1376.68 495.733 1383.88 498.133 1391.88 502.4C1406.28 509.867 1413.48 530.667 1413.48 564.8C1413.48 602.133 1403.61 624 1383.88 630.4C1374.81 633.6 1360.94 635.2 1342.28 635.2H1096.68V716H1255.08C1267.34 716 1276.41 716.533 1282.28 717.6C1288.68 718.133 1295.88 720.533 1303.88 724.8C1318.28 732.267 1325.48 753.067 1325.48 787.2C1325.48 824.533 1315.34 846.4 1295.08 852.8C1286.01 856 1272.14 857.6 1253.48 857.6H1096.68V938.4ZM1914.03 980.8C1922.03 1000 1926.03 1013.87 1926.03 1022.4C1926.03 1042.67 1909.5 1059.73 1876.43 1073.6C1859.37 1081.07 1845.5 1084.8 1834.83 1084.8C1824.7 1084.8 1816.17 1082.4 1809.23 1077.6C1802.83 1072.27 1798.03 1066.93 1794.83 1061.6C1789.5 1051.47 1768.7 1003.2 1732.43 916.8L1707.63 918.4H1606.83V1008.8C1606.83 1021.07 1606.3 1030.4 1605.23 1036.8C1604.7 1042.67 1602.3 1049.6 1598.03 1057.6C1590.57 1072 1569.77 1079.2 1535.63 1079.2C1498.3 1079.2 1476.43 1069.33 1470.03 1049.6C1466.83 1040.53 1465.23 1026.67 1465.23 1008V564C1465.23 551.733 1465.5 542.667 1466.03 536.8C1467.1 530.4 1469.77 523.2 1474.03 515.2C1481.5 500.8 1502.3 493.6 1536.43 493.6H1709.23C1756.17 493.6 1801.77 510.667 1846.03 544.8C1867.37 561.333 1884.97 583.733 1898.83 612C1912.7 640.267 1919.63 671.733 1919.63 706.4C1919.63 766.667 1899.63 816.267 1859.63 855.2C1871.37 883.467 1889.5 925.333 1914.03 980.8ZM1606.83 776.8H1709.23C1724.7 776.8 1740.17 770.933 1755.63 759.2C1771.1 747.467 1778.83 729.867 1778.83 706.4C1778.83 682.933 1771.1 665.333 1755.63 653.6C1740.17 641.333 1724.17 635.2 1707.63 635.2H1606.83V776.8Z" fill="white"/>
<path d="M2128.36 286.287C2135.52 287.181 2144.31 289.117 2147.73 290.756C2165.91 299.398 2188.26 325.77 2202.42 355.569C2209.27 370.171 2211.95 378.365 2215.82 396.394C2220.29 417.551 2222.38 419.19 2253.37 426.192C2278.55 431.854 2288.83 435.132 2305.97 443.476C2325.93 453.011 2343.96 466.57 2365.71 488.174C2387.32 509.778 2401.62 527.062 2429.04 565.204C2496.68 659.518 2541.53 696.32 2583.69 692.446C2596.36 691.403 2609.62 684.996 2619 675.609C2628.84 665.776 2633.75 657.283 2637.63 642.98C2641.5 628.527 2642.99 625.696 2645.97 626.292C2652.83 627.633 2649.85 646.704 2639.71 666.819C2617.96 710.772 2574.45 741.465 2533.93 741.316C2517.09 741.167 2505.17 738.187 2486.25 728.949C2459.73 716.136 2438.87 698.406 2414.88 668.458L2401.77 652.068L2402.51 783.183C2402.96 859.022 2403.86 919.513 2404.75 926.665C2408.18 953.931 2414.14 964.361 2443.04 993.117C2482.23 1032.45 2505.17 1044.07 2566.71 1056.44C2620.05 1067.17 2630.92 1071.34 2649.25 1088.62C2662.51 1101.14 2673.54 1117.53 2677.86 1130.94C2687.24 1160.29 2680.24 1202.9 2661.02 1232.7C2653.12 1244.77 2634.95 1263.09 2627.65 1266.07C2623.77 1267.71 2614.53 1268.91 2599.49 1269.65C2587.27 1270.25 2575.8 1271.29 2574.16 1271.89C2572.52 1272.63 2567.9 1276.06 2563.73 1279.78C2551.66 1290.51 2552.4 1287.53 2572.67 1243.58C2589.65 1206.77 2591.44 1200.52 2592.33 1175.04C2593.38 1145.99 2591.59 1135.41 2582.35 1116.93C2573.11 1098.46 2560.9 1082.51 2547.49 1071.19C2541.82 1066.42 2536.91 1062.85 2536.61 1063.14C2536.31 1063.44 2537.8 1068.66 2539.89 1074.91C2542.87 1084.15 2543.61 1089.07 2543.61 1101.58C2543.61 1145.69 2520.07 1186.36 2484.46 1203.94C2470.9 1210.8 2459.13 1213.03 2437.83 1213.03C2403.71 1213.03 2386.42 1206.77 2367.8 1187.7C2358.11 1178.02 2354.99 1173.25 2345.9 1155.52C2324.74 1114.1 2292.71 1045.26 2210.61 864.385C2132.09 691.552 2097.37 616.906 2089.18 603.794C2086.94 600.218 2085.6 599.175 2084.41 600.367C2081.28 603.496 2080.39 660.859 2080.39 892.992L2080.24 1131.09H2039.42H1998.59L1997.7 1075.66C1997.1 1045.12 1996.06 983.879 1995.31 939.628C1994.42 895.376 1993.38 802.106 1992.93 732.525L1992.03 605.88L1983.69 589.491C1969.09 560.288 1948.83 533.916 1924.39 512.46C1906.51 496.518 1895.49 489.217 1871.2 476.851L1849 465.527L1874.78 464.633C1914.56 463.143 2005.89 463.441 2025.86 465.229C2056.85 467.911 2070.85 471.934 2091.41 483.853C2115.1 497.71 2135.96 523.188 2162.48 570.866C2173.06 589.639 2211.95 666.521 2226.25 696.767C2268.27 785.418 2305.07 858.426 2311.63 866.769C2313.71 869.6 2314.91 870.196 2316.25 868.855C2318.33 866.769 2318.03 704.961 2315.65 644.32C2311.93 545.09 2305.52 516.036 2280.49 484.747C2270.8 472.679 2246.52 449.287 2236.24 442.284C2222.83 433.195 2220.29 437.665 2209.72 486.237C2203.61 514.546 2201.52 521.698 2199.29 521.698C2198.54 521.698 2197.65 519.165 2197.05 516.185C2195.86 509.778 2197.35 459.418 2199.44 437.516C2203.01 399.82 2203.01 393.414 2199.29 383.878C2194.37 370.618 2182.9 359.89 2167.1 353.483C2153.69 348.119 2149.82 345.139 2153.4 342.755C2156.38 340.968 2160.25 341.117 2170.08 343.65C2180.07 346.182 2183.94 346.48 2185.28 344.394C2188.26 339.478 2169.34 320.853 2151.91 311.765C2135.37 303.272 2120.62 299.1 2106.16 299.1C2095.44 299.1 2092.9 299.696 2084.26 303.868C2067.13 312.361 2056.4 328.899 2058.34 343.65C2059.38 350.801 2065.34 364.062 2067.13 363.466C2067.87 363.168 2070.85 359.741 2073.98 355.569C2082.03 344.841 2087.84 341.415 2097.67 341.415C2123 341.415 2137.6 368.979 2125.68 394.308C2120.17 405.929 2105.87 420.084 2093.5 426.192C2079.64 432.897 2072.94 433.493 2059.08 428.725C2045.52 424.256 2025.11 414.571 2025.11 412.634C2025.11 411.74 2036.58 411.74 2053.12 412.336C2085.45 413.528 2085.45 413.528 2097.67 400.714C2107.65 389.987 2111.53 382.239 2111.53 372.703C2111.53 354.526 2103.63 354.973 2091.41 373.895C2085.31 383.282 2078.9 386.56 2068.77 385.815C2061.02 385.07 2059.83 384.474 2053.42 377.769C2038.22 361.827 2034.8 336.647 2044.63 313.553C2048.35 304.762 2059.83 292.842 2067.28 290.011C2080.24 285.244 2105.12 283.605 2128.36 286.287Z" fill="white"/>
<path d="M2402.07 600.367C2402.07 620.928 2421.88 654.75 2451.24 684.251C2476.71 709.729 2489.83 717.477 2516.35 722.096C2532.44 724.926 2549.13 724.926 2563.73 722.096C2579.37 719.116 2600.08 708.686 2596.8 705.408C2596.21 704.961 2588.61 707.047 2579.82 710.325C2551.51 720.308 2527.97 718.967 2500.85 705.855C2469.86 690.807 2443.34 662.349 2419.2 618.544C2405.35 593.364 2402.07 589.788 2402.07 600.367Z" fill="#4462EC"/>
<path d="M2401.32 1008.17C2403.41 1110.82 2405.64 1143.15 2411.6 1154.63C2418.16 1167.29 2444.68 1181.74 2461.22 1181.74C2468.22 1181.74 2481.03 1176.98 2489.53 1171.17C2518.73 1151.2 2535.12 1113.65 2526.18 1086.98C2523.05 1077.6 2508.15 1062.55 2482.52 1043.33C2447.21 1016.51 2427.99 998.779 2410.26 976.132L2400.43 963.616L2401.32 1008.17Z" fill="#4462EC"/>
<path d="M2572.96 1067.91C2572.52 1068.36 2578.63 1082.07 2586.67 1098.16C2595.61 1116.19 2601.87 1130.94 2602.91 1136.3C2607.23 1157.9 2603.96 1192.47 2594.27 1226.29C2586.82 1251.77 2586.82 1253.41 2593.67 1258.63C2605.15 1267.42 2622.13 1261.9 2641.05 1243.13C2673.68 1210.95 2682.03 1163.12 2662.21 1121.4C2653.12 1102.18 2635.99 1085.49 2617.36 1077.45C2602.61 1071.04 2575.65 1065.38 2572.96 1067.91Z" fill="#4462EC"/>
</svg>
