<svg width="100" height="100" viewBox="0 0 100 100" fill="none" xmlns="http://www.w3.org/2000/svg">
<g clip-path="url(#clip0_424_1795)">
<rect width="100" height="100" transform="matrix(-1 0 0 1 100 0)" fill="#35363D"/>
<path d="M-5.92828 38.3867L-5.92123 38.3906L-5.91385 38.3939L20.2113 50.2421C22.2668 51.1743 24.0363 52.6381 25.3373 54.4825L27.7962 57.9686C30.8009 62.2283 36.7713 63.0804 40.8476 59.8314C42.3813 58.6091 44.2844 57.9434 46.2456 57.9434L57.4008 57.9434C63.4786 57.9434 69.2895 60.4402 73.4729 64.8491L77.103 68.6748C79.0443 70.7208 81.741 71.8794 84.5615 71.8794C89.2516 71.8794 93.3472 68.7055 94.5178 64.1638L94.7965 63.0825C95.6443 59.793 97.9243 57.058 101.007 55.6319L101.62 55.3485C106.331 53.1696 111.892 54.0643 115.681 57.6106L127.275 68.4602C129.301 70.3564 132.511 70.1303 134.252 67.9688C136.839 64.7554 142.029 66.5851 142.029 70.7107L142.029 75.3136C142.029 78.3791 144.204 81.0133 147.215 81.5929L167.451 85.4891C175.428 87.025 183.568 83.7686 188.285 77.1547C190.795 73.6351 192.144 69.42 192.144 65.0971L192.144 59.0581C192.144 51.2053 196.97 44.1598 204.293 41.3231C209.071 39.4723 214.393 39.6274 219.055 41.7534L229.678 46.5982C235.967 49.4661 243.393 46.7511 246.349 40.5034C250.029 32.7266 260.372 31.0722 266.293 37.3131L275.478 46.9932C278.382 50.0534 282.133 52.1781 286.25 53.0957C291.19 54.1966 295.559 57.0597 298.54 61.1494L318.043 87.907L318.043 87.9072L318.051 87.9171L330.852 103.299C335.812 109.259 332.773 118.355 325.227 120.137C323.222 120.61 321.394 121.644 319.956 123.119L317.49 125.649C310.346 132.977 309.352 144.323 315.115 152.78C317.018 155.574 318.223 158.784 318.628 162.141L319.681 170.877C321.197 183.446 317.562 196.093 309.605 205.939L304.974 211.671C302.366 214.898 298.888 217.309 294.952 218.62L294.269 218.847C285.651 221.717 279.836 229.781 279.836 238.864C279.836 241.522 279.324 244.155 278.328 246.62L274.61 255.82C268.858 270.054 257.879 281.548 243.924 287.947L225.634 296.335C217.091 300.252 207.096 299.234 199.518 293.675C198.049 292.598 196.472 291.676 194.812 290.924L180.874 284.611C175.83 282.326 170.069 282.21 164.936 284.289L155.099 288.274C150.113 290.294 144.445 287.791 142.579 282.746C140.422 276.912 133.495 274.474 128.16 277.67L117.614 283.986C112.725 286.915 106.524 286.469 102.104 282.871C98.3182 279.789 93.1964 278.911 88.6004 280.557L68.1659 287.873C60.92 290.468 55.6614 296.802 54.4443 304.401C53.3175 311.437 48.6512 317.399 42.0921 320.182L39.7281 321.186C30.1243 325.261 24.6819 335.501 26.6766 345.741C27.2444 348.657 27.2074 351.657 26.568 354.557L26.49 354.911C24.5491 363.715 17.7307 370.624 8.95399 372.682L5.58208 373.472C0.950852 374.558 -3.34691 376.753 -6.94081 379.869L-8.06462 380.844C-17.6187 389.128 -31.4347 390.278 -42.2273 383.689L-45.959 381.41C-52.2802 377.551 -56.1361 370.678 -56.1361 363.272C-56.1361 355.15 -60.6821 347.71 -67.91 344.005L-92.6276 331.333C-111.747 321.53 -124.975 303.119 -128.163 281.872L-130.638 265.38C-131 262.965 -131.84 260.646 -133.109 258.56L-133.276 258.285C-138.507 249.684 -149.76 247.02 -158.291 252.364L-165.984 257.182C-169.833 259.593 -174.902 258.492 -177.403 254.701L-178.309 253.329C-179.442 251.613 -179.543 249.414 -178.573 247.601C-176.183 243.133 -180.065 237.896 -185.035 238.884L-185.259 238.928C-187.311 239.336 -189.421 238.589 -190.759 236.981L-196.234 230.408C-199.78 226.149 -201.412 220.616 -200.742 215.115L-197.909 191.825C-196.675 181.686 -188.069 174.063 -177.855 174.063L-175.438 174.063C-168.427 174.063 -162.131 169.772 -159.566 163.247C-158.016 159.303 -155.02 156.098 -151.189 154.285L-147.013 152.31C-139.074 148.553 -133.29 141.371 -131.314 132.814L-130.686 130.096C-130.263 128.262 -129.688 126.467 -128.969 124.729L-98.4568 51.0296C-97.096 47.7429 -94.9156 44.8598 -92.1237 42.6555L-77.0826 30.7805C-73.1048 27.64 -67.2163 29.3919 -65.6021 34.196C-64.7754 36.6563 -65.3126 39.3704 -67.0143 41.3303L-73.9546 49.3237C-78.3802 54.4209 -75.991 62.3903 -69.491 64.2118C-66.1147 65.158 -62.4941 64.1024 -60.1553 61.49L-43.932 43.3683C-40.9922 40.0846 -37.3494 37.5067 -33.2748 35.8266C-25.0343 32.4288 -15.6949 32.9683 -7.90045 37.2925L-5.92828 38.3867Z" stroke="#F64F4F" stroke-width="0.4"/>
<path d="M200.825 -53.8962C196.188 -58.5332 194.166 -64.5248 191.032 -70.1653C190.175 -71.7089 189.724 -73.5786 188.311 -74.9924C186.291 -77.0119 184.272 -79.0315 182.252 -81.0511C180.703 -82.5996 179.211 -84.2545 177.584 -85.7193C176.84 -86.3888 174.932 -86.7834 173.929 -87.07C172.55 -87.4639 171.476 -88.1794 170.075 -88.5797C167.806 -89.2281 166.813 -90.3971 164.354 -90.5265C162.135 -90.6433 160.1 -89.9184 157.918 -89.2949C154.354 -88.2766 150.263 -88.1209 147.052 -85.898C142.422 -82.6927 137.474 -77.6861 134.835 -72.6483C133.717 -70.5129 130.48 -66.531 131.021 -64.186C131.487 -62.1694 128.194 -59.9377 127.545 -58.2068C126.543 -55.5359 123.657 -51.9644 121.725 -49.8835C119.252 -47.2205 117.521 -44.4689 115.507 -41.5603C113.324 -38.4074 110.615 -36.1956 108.932 -32.641C107.157 -28.8935 105.582 -24.7354 104.085 -20.8415C102.262 -16.1035 99.2469 -11.4534 96.6951 -7.13491C93.4841 -1.70082 90.9809 3.80739 88.352 9.59108C86.7014 13.2225 84.9637 17.6277 82.1145 20.4769C79.334 23.2574 76.7289 26.7172 74.268 29.7934C73.1315 31.214 73.2055 33.6166 72.6391 35.3157C69.5252 44.6575 69.8644 46.2669 63.5212 51.9424C59.6048 55.4466 55.6077 59.1408 51.9203 62.8282C48.8916 65.857 46.3833 69.348 45.0074 73.4756C43.1898 78.9286 42.5672 85.5097 38.8295 90.1817C36.2671 93.3848 33.9185 97.3226 31.6187 100.849C29.293 104.415 26.6198 107.652 24.5469 111.338C20.2475 118.981 15.6747 126.213 11.3369 133.804C9.0412 137.822 6.25029 141.742 5.03986 146.18C4.92948 146.585 4.72512 149.204 4.54325 147.749C4.34957 146.2 3.68826 145.308 4.36447 143.836C6.04824 140.171 7.17318 136.29 9.09224 132.672C11.0899 128.906 13.794 125.354 15.2503 121.349C16.1029 119.004 18.0382 116.339 18.1108 113.801C18.2285 109.678 20.181 105.792 20.5938 101.663C21.1012 96.5898 24.6572 91.4263 26.3347 86.6657C28.4751 80.5915 31.781 74.4319 33.2873 68.1916C35.1729 60.3798 37.9237 52.9508 41.6305 45.7844C47.4174 34.5963 50.7303 22.6937 53.5095 10.4651C54.4942 6.13239 56.2824 1.66636 57.8797 -2.4866C59.9847 -7.95949 61.4602 -13.6022 63.5014 -19.1133C65.9025 -25.5963 68.4321 -31.836 71.3082 -38.084C78.8539 -54.4764 85.6914 -71.34 93.5565 -87.5071C96.742 -94.055 99.5926 -100.652 102.853 -107.173C105.368 -112.202 109.227 -116.38 112.229 -121.039C114.415 -124.43 117.818 -127.02 119.837 -130.593C122.171 -134.722 127.12 -138.233 130.465 -141.579C137.097 -148.21 143.365 -149.201 152.395 -149.365C156.116 -149.433 162.328 -149.663 165.407 -147.2C169.701 -143.764 175.01 -141.107 179.57 -137.923C187.468 -132.41 191.892 -125.092 195.541 -116.39C197.391 -111.98 199.14 -107.58 200.647 -103.061C201.859 -99.424 203.582 -94.9346 203.686 -91.0827C203.783 -87.4946 205.095 -83.9659 205.454 -80.3757C205.691 -78.0049 205.33 -74.4887 204.679 -72.2113C203.953 -69.6713 204.421 -66.4304 204.739 -63.888C204.985 -61.9142 203.951 -59.485 203.845 -57.4718C203.756 -55.7813 203.676 -53.9835 203.865 -52.2871C204.11 -50.0781 200.506 -53.6543 200.825 -54.6113" stroke="#F5F5F5" stroke-width="0.2" stroke-linecap="round" stroke-linejoin="round"/>
<path d="M200.825 -52.4948C196.188 -57.1318 194.166 -63.1235 191.032 -68.7639C190.175 -70.3075 189.724 -72.1772 188.311 -73.591C186.291 -75.6106 184.272 -77.6301 182.252 -79.6497C180.703 -81.1982 179.211 -82.8531 177.584 -84.3179C176.84 -84.9874 174.932 -85.382 173.929 -85.6687C172.55 -86.0625 171.476 -86.778 170.075 -87.1784C167.806 -87.8267 166.813 -88.9957 164.354 -89.1251C162.135 -89.2419 160.1 -88.5171 157.918 -87.8935C154.354 -86.8752 150.263 -86.7195 147.052 -84.4967C142.422 -81.2913 137.474 -76.2847 134.835 -71.247C133.717 -69.1116 130.48 -65.1296 131.021 -62.7847C131.487 -60.768 128.194 -58.5363 127.545 -56.8054C126.543 -54.1346 123.657 -50.563 121.725 -48.4822C119.252 -45.8191 117.521 -43.0675 115.507 -40.1589C113.324 -37.006 110.615 -34.7943 108.932 -31.2397C107.157 -27.4921 105.582 -23.3341 104.085 -19.4401C102.262 -14.7021 99.2469 -10.052 96.6951 -5.73354C93.4841 -0.299451 90.9809 5.20876 88.352 10.9924C86.7014 14.6238 84.9637 19.0291 82.1145 21.8783C79.334 24.6588 76.7289 28.1185 74.268 31.1947C73.1315 32.6154 73.2055 35.018 72.6391 36.7171C69.5252 46.0588 69.8644 47.6683 63.5212 53.3438C59.6048 56.8479 55.6077 60.5422 51.9203 64.2296C48.8916 67.2583 46.3833 70.7493 45.0074 74.877C43.1898 80.33 42.5672 86.911 38.8295 91.5831C36.2671 94.7861 33.9185 98.724 31.6187 102.25C29.293 105.816 26.6198 109.054 24.5469 112.739C20.2475 120.382 15.6747 127.615 11.3369 135.206C9.0412 139.223 6.25029 143.143 5.03986 147.581C4.92948 147.986 4.72512 150.606 4.54325 149.151C4.34957 147.601 3.68826 146.709 4.36447 145.237C6.04824 141.573 7.17318 137.691 9.09224 134.073C11.0899 130.307 13.794 126.755 15.2503 122.751C16.1029 120.406 18.0382 117.74 18.1108 115.202C18.2285 111.08 20.181 107.193 20.5938 103.065C21.1012 97.9912 24.6572 92.8277 26.3347 88.0671C28.4751 81.9929 31.781 75.8333 33.2873 69.593C35.1729 61.7812 37.9237 54.3521 41.6305 47.1857C47.4174 35.9977 50.7303 24.095 53.5095 11.8665C54.4942 7.53376 56.2824 3.06773 57.8797 -1.08523C59.9847 -6.55812 61.4602 -12.2008 63.5014 -17.7119C65.9025 -24.1949 68.4321 -30.4346 71.3082 -36.6826C78.8539 -53.0751 85.6914 -69.9386 93.5565 -86.1057C96.742 -92.6537 99.5926 -99.2506 102.853 -105.772C105.368 -110.801 109.227 -114.979 112.229 -119.637C114.415 -123.028 117.818 -125.619 119.837 -129.192C122.171 -133.321 127.12 -136.832 130.465 -140.177C137.097 -146.809 143.365 -147.8 152.395 -147.964C156.116 -148.032 162.328 -148.262 165.407 -145.799C169.701 -142.363 175.01 -139.706 179.57 -136.522C187.468 -131.009 191.892 -123.69 195.541 -114.989C197.391 -110.579 199.14 -106.178 200.647 -101.66C201.859 -98.0226 203.582 -93.5333 203.686 -89.6813C203.783 -86.0933 205.095 -82.5645 205.454 -78.9743C205.691 -76.6036 205.33 -73.0873 204.679 -70.81C203.953 -68.27 204.421 -65.0291 204.739 -62.4867C204.985 -60.5129 203.951 -58.0836 203.845 -56.0704C203.756 -54.3799 203.676 -52.5821 203.865 -50.8858C204.11 -48.6767 200.506 -52.2529 200.825 -53.2099" stroke="#F5F5F5" stroke-width="0.2" stroke-linecap="round" stroke-linejoin="round"/>
<path d="M201.175 -50.7428C196.538 -55.3799 194.515 -61.3715 191.382 -67.012C190.524 -68.5556 190.074 -70.4253 188.66 -71.8391C186.641 -73.8586 184.621 -75.8782 182.602 -77.8978C181.053 -79.4463 179.561 -81.1012 177.933 -82.5659C177.189 -83.2355 175.282 -83.63 174.278 -83.9167C172.9 -84.3105 171.826 -85.0261 170.425 -85.4264C168.155 -86.0748 167.163 -87.2437 164.704 -87.3732C162.484 -87.49 160.45 -86.7651 158.267 -86.1415C154.703 -85.1233 150.612 -84.9676 147.401 -82.7447C142.771 -79.5393 137.824 -74.5327 135.185 -69.495C134.066 -67.3596 130.83 -63.3777 131.371 -61.0327C131.836 -59.0161 128.544 -56.7843 127.894 -55.0535C126.893 -52.3826 124.006 -48.8111 122.074 -46.7302C119.601 -44.0672 117.87 -41.3155 115.857 -38.4069C113.674 -35.2541 110.965 -33.0423 109.281 -29.4877C107.506 -25.7402 105.932 -21.5821 104.434 -17.6882C102.612 -12.9501 99.5965 -8.30004 97.0447 -3.98159C93.8337 1.4525 91.3305 6.96071 88.7016 12.7444C87.051 16.3758 85.3133 20.781 82.4641 23.6302C79.6836 26.4107 77.0786 29.8705 74.6176 32.9467C73.4811 34.3673 73.5551 36.7699 72.9887 38.4691C69.8748 47.8108 70.214 49.4202 63.8708 55.0957C59.9544 58.5999 55.9573 62.2942 52.2699 65.9815C49.2412 69.0103 46.7329 72.5013 45.357 76.6289C43.5394 82.082 42.9168 88.663 39.1792 93.3351C36.6167 96.5381 34.2681 100.476 31.9683 104.002C29.6427 107.568 26.9694 110.806 24.8965 114.491C20.5971 122.134 16.0244 129.367 11.6866 136.958C9.39081 140.975 6.5999 144.895 5.38947 149.333C5.27909 149.738 5.07473 152.358 4.89286 150.903C4.69918 149.353 4.03786 148.461 4.71408 146.989C6.39785 143.325 7.52279 139.443 9.44185 135.825C11.4395 132.059 14.1436 128.507 15.5999 124.503C16.4525 122.158 18.3879 119.492 18.4604 116.954C18.5782 112.832 20.5306 108.945 20.9435 104.817C21.4508 99.7431 25.0068 94.5797 26.6843 89.819C28.8247 83.7449 32.1307 77.5853 33.6369 71.345C35.5225 63.5331 38.2733 56.1041 41.9801 48.9377C47.767 37.7497 51.0799 25.847 53.8591 13.6184C54.8438 9.28571 56.632 4.81968 58.2293 0.666722C60.3343 -4.80617 61.8099 -10.4489 63.851 -15.9599C66.2521 -22.443 68.7817 -28.6826 71.6578 -34.9306C79.2035 -51.3231 86.041 -68.1866 93.9061 -84.3538C97.0916 -90.9017 99.9422 -97.4986 103.203 -104.02C105.717 -109.049 109.577 -113.227 112.579 -117.885C114.764 -121.276 118.167 -123.867 120.187 -127.44C122.521 -131.569 127.469 -135.08 130.815 -138.425C137.446 -145.057 143.715 -146.048 152.745 -146.212C156.466 -146.28 162.678 -146.51 165.756 -144.047C170.051 -140.611 175.36 -137.954 179.92 -134.77C187.817 -129.257 192.242 -121.939 195.891 -113.237C197.74 -108.827 199.49 -104.426 200.996 -99.9077C202.209 -96.2707 203.931 -91.7813 204.035 -87.9294C204.132 -84.3413 205.444 -80.8125 205.803 -77.2224C206.04 -74.8516 205.679 -71.3353 205.029 -69.058C204.303 -66.518 204.77 -63.2771 205.088 -60.7347C205.335 -58.7609 204.3 -56.3317 204.194 -54.3185C204.105 -52.628 204.026 -50.8301 204.214 -49.1338C204.46 -46.9248 200.856 -50.501 201.175 -51.458" stroke="#F5F5F5" stroke-width="0.2" stroke-linecap="round" stroke-linejoin="round"/>
<path d="M201.525 -48.9904C196.888 -53.6274 194.865 -59.6191 191.731 -65.2595C190.874 -66.8031 190.424 -68.6728 189.01 -70.0866C186.99 -72.1062 184.971 -74.1257 182.951 -76.1453C181.403 -77.6938 179.91 -79.3487 178.283 -80.8135C177.539 -81.483 175.631 -81.8776 174.628 -82.1643C173.249 -82.5581 172.175 -83.2736 170.774 -83.674C168.505 -84.3223 167.512 -85.4913 165.053 -85.6207C162.834 -85.7375 160.799 -85.0127 158.617 -84.3891C155.053 -83.3708 150.962 -83.2151 147.751 -80.9923C143.121 -77.7869 138.173 -72.7803 135.534 -67.7426C134.416 -65.6072 131.179 -61.6252 131.72 -59.2803C132.186 -57.2636 128.893 -55.0319 128.244 -53.301C127.242 -50.6302 124.356 -47.0586 122.424 -44.9778C119.951 -42.3147 118.22 -39.5631 116.206 -36.6545C114.023 -33.5016 111.315 -31.2899 109.631 -27.7353C107.856 -23.9877 106.282 -19.8297 104.784 -15.9357C102.962 -11.1977 99.9461 -6.5476 97.3943 -2.22915C94.1833 3.20494 91.6802 8.71315 89.0512 14.4968C87.4006 18.1282 85.6629 22.5335 82.8137 25.3826C80.0332 28.1632 77.4282 31.6229 74.9672 34.6991C73.8307 36.1198 73.9047 38.5224 73.3383 40.2215C70.2244 49.5632 70.5636 51.1727 64.2205 56.8482C60.3041 60.3523 56.3069 64.0466 52.6195 67.734C49.5908 70.7627 47.0825 74.2537 45.7067 78.3814C43.889 83.8344 43.2664 90.4154 39.5288 95.0875C36.9663 98.2905 34.6177 102.228 32.3179 105.755C29.9923 109.321 27.319 112.558 25.2461 116.243C20.9467 123.887 16.374 131.119 12.0362 138.71C9.74042 142.728 6.94951 146.648 5.73908 151.086C5.6287 151.491 5.42434 154.11 5.24247 152.655C5.04879 151.106 4.38747 150.214 5.06369 148.742C6.74746 145.077 7.8724 141.196 9.79146 137.578C11.7891 133.812 14.4932 130.26 15.9495 126.255C16.8022 123.91 18.7375 121.245 18.81 118.707C18.9278 114.584 20.8802 110.698 21.2931 106.569C21.8004 101.496 25.3564 96.3321 27.0339 91.5715C29.1744 85.4973 32.4803 79.3377 33.9865 73.0974C35.8722 65.2856 38.6229 57.8565 42.3297 50.6901C48.1166 39.5021 51.4295 27.5994 54.2087 15.3709C55.1934 11.0381 56.9816 6.57212 58.5789 2.41916C60.6839 -3.05373 62.1595 -8.69645 64.2006 -14.2075C66.6017 -20.6905 69.1313 -26.9302 72.0074 -33.1782C79.5531 -49.5707 86.3906 -66.4342 94.2557 -82.6013C97.4412 -89.1493 100.292 -95.7462 103.552 -102.267C106.067 -107.296 109.926 -111.474 112.928 -116.133C115.114 -119.524 118.517 -122.115 120.537 -125.688C122.87 -129.817 127.819 -133.328 131.164 -136.673C137.796 -143.304 144.064 -144.295 153.095 -144.46C156.815 -144.527 163.027 -144.757 166.106 -142.294C170.401 -138.859 175.709 -136.201 180.269 -133.018C188.167 -127.504 192.591 -120.186 196.241 -111.484C198.09 -107.074 199.84 -102.674 201.346 -98.1553C202.558 -94.5182 204.281 -90.0289 204.385 -86.1769C204.482 -82.5889 205.794 -79.0601 206.153 -75.4699C206.39 -73.0992 206.029 -69.5829 205.378 -67.3056C204.653 -64.7656 205.12 -61.5247 205.438 -58.9823C205.685 -57.0085 204.65 -54.5792 204.544 -52.566C204.455 -50.8755 204.375 -49.0777 204.564 -47.3814C204.809 -45.1723 201.206 -48.7485 201.525 -49.7055" stroke="#F5F5F5" stroke-width="0.2" stroke-linecap="round" stroke-linejoin="round"/>
<path d="M201.876 -47.2385C197.239 -51.8755 195.216 -57.8671 192.083 -63.5076C191.225 -65.0512 190.775 -66.9209 189.361 -68.3347C187.342 -70.3542 185.322 -72.3738 183.303 -74.3934C181.754 -75.9419 180.262 -77.5968 178.635 -79.0615C177.891 -79.7311 175.983 -80.1256 174.979 -80.4123C173.601 -80.8062 172.527 -81.5217 171.126 -81.922C168.857 -82.5704 167.864 -83.7393 165.405 -83.8688C163.186 -83.9856 161.151 -83.2607 158.969 -82.6372C155.405 -81.6189 151.313 -81.4632 148.103 -79.2403C143.473 -76.0349 138.525 -71.0283 135.886 -65.9906C134.767 -63.8552 131.531 -59.8733 132.072 -57.5283C132.537 -55.5117 129.245 -53.2799 128.596 -51.5491C127.594 -48.8782 124.708 -45.3067 122.775 -43.2258C120.302 -40.5628 118.571 -37.8111 116.558 -34.9025C114.375 -31.7497 111.666 -29.5379 109.982 -25.9833C108.207 -22.2358 106.633 -18.0777 105.136 -14.1838C103.313 -9.44575 100.298 -4.79564 97.7459 -0.477195C94.5348 4.9569 92.0317 10.4651 89.4028 16.2488C87.7521 19.8802 86.0144 24.2854 83.1653 27.1346C80.3848 29.9151 77.7797 33.3749 75.3188 36.4511C74.1823 37.8717 74.2562 40.2743 73.6899 41.9734C70.576 51.3152 70.9152 52.9246 64.572 58.6001C60.6556 62.1043 56.6584 65.7986 52.9711 69.4859C49.9423 72.5147 47.4341 76.0057 46.0582 80.1333C44.2405 85.5864 43.618 92.1674 39.8803 96.8395C37.3179 100.042 34.9693 103.98 32.6695 107.507C30.3438 111.073 27.6706 114.31 25.5977 117.995C21.2982 125.639 16.7255 132.871 12.3877 140.462C10.092 144.48 7.30107 148.4 6.09065 152.838C5.98026 153.243 5.7759 155.862 5.59403 154.407C5.40035 152.858 4.73904 151.965 5.41525 150.494C7.09902 146.829 8.22396 142.948 10.143 139.33C12.1407 135.564 14.8448 132.012 16.301 128.007C17.1537 125.662 19.089 122.997 19.1615 120.458C19.2793 116.336 21.2318 112.45 21.6446 108.321C22.152 103.248 25.7079 98.084 27.3855 93.3234C29.5259 87.2492 32.8318 81.0897 34.3381 74.8494C36.2237 67.0375 38.9745 59.6085 42.6812 52.4421C48.4681 41.2541 51.7811 29.3514 54.5603 17.1228C55.545 12.7901 57.3332 8.32408 58.9305 4.17112C61.0354 -1.30177 62.511 -6.9445 64.5522 -12.4556C66.9533 -18.9386 69.4829 -25.1782 72.3589 -31.4262C79.9047 -47.8187 86.7422 -64.6822 94.6073 -80.8494C97.7928 -87.3973 100.643 -93.9942 103.904 -100.515C106.419 -105.545 110.278 -109.722 113.28 -114.381C115.465 -117.772 118.869 -120.363 120.888 -123.936C123.222 -128.065 128.171 -131.576 131.516 -134.921C138.147 -141.553 144.416 -142.544 153.446 -142.708C157.167 -142.775 163.379 -143.005 166.458 -140.542C170.752 -137.107 176.061 -134.449 180.621 -131.266C188.519 -125.752 192.943 -118.434 196.592 -109.732C198.441 -105.322 200.191 -100.922 201.697 -96.4033C202.91 -92.7663 204.633 -88.2769 204.737 -84.425C204.834 -80.8369 206.146 -77.3082 206.505 -73.718C206.742 -71.3472 206.381 -67.8309 205.73 -65.5536C205.004 -63.0136 205.472 -59.7727 205.789 -57.2303C206.036 -55.2565 205.001 -52.8273 204.896 -50.8141C204.807 -49.1236 204.727 -47.3258 204.915 -45.6294C205.161 -43.4204 201.557 -46.9966 201.876 -47.9536" stroke="#F5F5F5" stroke-width="0.2" stroke-linecap="round" stroke-linejoin="round"/>
<path d="M202.226 -45.4865C197.589 -50.1235 195.566 -56.1151 192.432 -61.7556C191.575 -63.2992 191.125 -65.1689 189.711 -66.5827C187.691 -68.6023 185.672 -70.6218 183.652 -72.6414C182.104 -74.1899 180.612 -75.8448 178.984 -77.3096C178.24 -77.9791 176.332 -78.3737 175.329 -78.6604C173.951 -79.0542 172.877 -79.7697 171.475 -80.1701C169.206 -80.8184 168.213 -81.9874 165.754 -82.1168C163.535 -82.2336 161.501 -81.5088 159.318 -80.8852C155.754 -79.8669 151.663 -79.7112 148.452 -77.4884C143.822 -74.283 138.874 -69.2764 136.236 -64.2387C135.117 -62.1033 131.88 -58.1213 132.422 -55.7764C132.887 -53.7597 129.594 -51.528 128.945 -49.7971C127.944 -47.1263 125.057 -43.5547 123.125 -41.4738C120.652 -38.8108 118.921 -36.0592 116.907 -33.1506C114.725 -29.9977 112.016 -27.786 110.332 -24.2314C108.557 -20.4838 106.983 -16.3258 105.485 -12.4318C103.663 -7.6938 100.647 -3.04369 98.0955 1.27476C94.8845 6.70885 92.3813 12.2171 89.7524 18.0007C88.1017 21.6321 86.3641 26.0374 83.5149 28.8866C80.7344 31.6671 78.1293 35.1268 75.6684 38.203C74.5319 39.6237 74.6059 42.0263 74.0395 43.7254C70.9256 53.0671 71.2648 54.6766 64.9216 60.3521C61.0052 63.8562 57.0081 67.5505 53.3207 71.2379C50.2919 74.2666 47.7837 77.7576 46.4078 81.8853C44.5902 87.3383 43.9676 93.9193 40.2299 98.5914C37.6675 101.794 35.3189 105.732 33.0191 109.259C30.6934 112.825 28.0202 116.062 25.9473 119.747C21.6479 127.391 17.0751 134.623 12.7373 142.214C10.4416 146.232 7.65068 150.151 6.44025 154.59C6.32987 154.994 6.12551 157.614 5.94364 156.159C5.74996 154.61 5.08865 153.717 5.76486 152.246C7.44863 148.581 8.57357 144.7 10.4926 141.082C12.4903 137.316 15.1944 133.764 16.6507 129.759C17.5033 127.414 19.4386 124.749 19.5112 122.21C19.6289 118.088 21.5814 114.202 21.9942 110.073C22.5016 104.999 26.0576 99.836 27.7351 95.0754C29.8755 89.0012 33.1814 82.8416 34.6877 76.6013C36.5733 68.7895 39.3241 61.3604 43.0308 54.194C48.8178 43.006 52.1307 31.1033 54.9099 18.8748C55.8946 14.5421 57.6828 10.076 59.2801 5.92307C61.385 0.450179 62.8606 -5.19255 64.9018 -10.7036C67.3029 -17.1866 69.8325 -23.4263 72.7086 -29.6743C80.2543 -46.0668 87.0918 -62.9303 94.9569 -79.0974C98.1424 -85.6454 100.993 -92.2423 104.254 -98.7634C106.768 -103.793 110.627 -107.97 113.63 -112.629C115.815 -116.02 119.218 -118.611 121.238 -122.184C123.572 -126.313 128.52 -129.824 131.865 -133.169C138.497 -139.801 144.766 -140.792 153.796 -140.956C157.516 -141.023 163.729 -141.253 166.807 -138.791C171.102 -135.355 176.41 -132.697 180.971 -129.514C188.868 -124 193.293 -116.682 196.942 -107.981C198.791 -103.571 200.541 -99.17 202.047 -94.6514C203.259 -91.0143 204.982 -86.525 205.086 -82.673C205.183 -79.085 206.495 -75.5562 206.854 -71.966C207.091 -69.5953 206.73 -66.079 206.079 -63.8017C205.354 -61.2617 205.821 -58.0208 206.139 -55.4784C206.386 -53.5046 205.351 -51.0753 205.245 -49.0621C205.156 -47.3716 205.077 -45.5738 205.265 -43.8775C205.51 -41.6684 201.907 -45.2446 202.226 -46.2016" stroke="#F5F5F5" stroke-width="0.2" stroke-linecap="round" stroke-linejoin="round"/>
<path d="M-55.9929 -51.0171C-55.9929 -37.1566 -50.0605 -25.1789 -46.3135 -12.0656C-45.2881 -8.47695 -43.1662 -5.00985 -43.1662 -0.783944C-43.1662 5.25274 -43.1662 11.2894 -43.1662 17.3261C-43.1662 21.9548 -42.923 26.6582 -43.1662 31.2798C-43.2774 33.3922 -45.5392 36.8333 -46.6105 38.7613C-48.0821 41.41 -48.618 44.0846 -50.1141 46.7772C-52.5367 51.1376 -52.2733 54.3684 -55.7554 58.2371C-58.8978 61.7283 -63.0222 63.6857 -67.2163 66.0155C-74.0654 69.8202 -80.4131 75.7019 -88.5348 77.1784C-100.246 79.3076 -115.125 79.2199 -126.599 75.6346C-131.463 74.1149 -142.252 73.0009 -144.948 68.6875C-147.267 64.9779 -155.524 66.5635 -159.082 64.9467C-164.571 62.4519 -174.224 61.4281 -180.222 61.2059C-187.898 60.9216 -194.599 59.3965 -201.956 58.0589C-209.931 56.609 -217.286 57.3517 -225.115 54.5557C-233.37 51.6078 -241.938 47.746 -249.997 44.1646C-259.802 39.807 -271.26 37.364 -281.529 34.7237C-294.451 31.4012 -306.425 26.91 -319 22.1951C-326.895 19.2347 -336.076 15.2479 -344.594 15.2479C-352.906 15.2479 -361.971 13.9705 -370.247 13.051C-374.069 12.6263 -377.55 8.92494 -380.936 7.23199C-399.553 -2.07579 -401.452 -4.98823 -419.416 -3.99032C-430.507 -3.37418 -442.004 -2.92152 -453.027 -2.92152C-462.081 -2.92152 -471.048 -4.39032 -479.274 -8.50299C-490.141 -13.9362 -500.908 -22.8414 -513.478 -24.238C-522.096 -25.1954 -531.492 -27.5706 -540.201 -29.4038C-549.007 -31.2575 -557.841 -32.1006 -566.448 -34.5102C-584.299 -39.508 -601.944 -43.4828 -619.774 -48.3451C-629.21 -50.9185 -639.241 -52.6058 -647.684 -57.4299C-648.454 -57.8698 -652.674 -61.4794 -650.772 -59.033C-648.745 -56.4278 -648.4 -54.1062 -645.19 -52.9172C-637.195 -49.9566 -629.712 -45.8371 -621.436 -43.2981C-612.821 -40.6551 -603.471 -39.3879 -595.308 -35.579C-590.529 -33.3489 -583.652 -32.2576 -579.75 -28.5725C-573.412 -22.5876 -564.685 -19.6971 -557.897 -14.1438C-549.555 -7.31924 -536.522 -4.91672 -526.899 -0.308927C-514.621 5.57027 -500.473 9.83525 -488.894 16.9105C-474.399 25.7675 -459.184 32.7594 -442.932 37.93C-417.559 46.0023 -394.817 58.8401 -372.385 72.9626C-364.437 77.9664 -355.089 81.9685 -346.494 85.7881C-335.167 90.8217 -324.528 97.0496 -313.239 102.236C-299.96 108.336 -286.853 113.881 -273.215 118.921C-237.435 132.143 -202.009 147.127 -166.089 159.535C-151.54 164.56 -137.419 170.159 -122.799 175.032C-111.523 178.79 -99.5102 179.266 -88.0597 181.742C-79.7245 183.544 -70.7654 182.33 -62.4063 184.651C-52.7464 187.334 -40.102 185.186 -30.102 185.186C-10.2772 185.186 0.573579 177.298 14.3164 164.047C19.9787 158.588 29.6075 149.647 30.5279 141.365C31.8117 129.812 35.7743 117.906 37.832 106.333C41.3956 86.2893 37.0704 68.7393 29.5184 50.2805C25.691 40.9256 21.7288 31.734 17.2261 22.7295C13.6019 15.4817 9.46682 6.19737 3.86496 0.284846C-1.3531 -5.22259 -4.66656 -12.4573 -9.49616 -18.3596C-12.6853 -22.2571 -18.4808 -26.9727 -22.8573 -29.4038C-27.7385 -32.1153 -31.8839 -37.6577 -35.209 -41.9324C-37.7904 -45.2511 -42.9679 -47.3353 -46.1354 -50.1858C-48.7952 -52.5794 -51.6014 -55.1473 -53.8551 -57.9642C-56.7901 -61.6326 -56.8312 -50.9018 -54.924 -49.9483" stroke="#F5F5F5" stroke-width="0.2" stroke-linecap="round" stroke-linejoin="round"/>
<path d="M-58.1101 -53.4863C-58.1101 -39.6258 -52.1777 -27.6481 -48.4307 -14.5349C-47.4053 -10.9462 -45.2834 -7.47909 -45.2834 -3.25318C-45.2834 2.78351 -45.2834 8.8202 -45.2834 14.8569C-45.2834 19.4856 -45.0401 24.189 -45.2834 28.8105C-45.3946 30.923 -47.6564 34.3641 -48.7277 36.2921C-50.1993 38.9408 -50.7352 41.6153 -52.2312 44.308C-54.6539 48.6683 -54.3905 51.8992 -57.8726 55.7678C-61.015 59.259 -65.1394 61.2164 -69.3335 63.5462C-76.1826 67.3509 -82.5303 73.2326 -90.652 74.7092C-102.363 76.8383 -117.242 76.7507 -128.716 73.1654C-133.58 71.6456 -144.369 70.5316 -147.066 66.2182C-149.384 62.5087 -157.641 64.0942 -161.199 62.4774C-166.688 59.9826 -176.341 58.9588 -182.339 58.7367C-190.016 58.4524 -196.716 56.9272 -204.073 55.5897C-212.048 54.1398 -219.403 54.8825 -227.232 52.0864C-235.487 49.1386 -244.055 45.2768 -252.114 41.6954C-261.92 37.3378 -273.377 34.8948 -283.646 32.2544C-296.568 28.932 -308.542 24.4407 -321.117 19.7258C-329.012 16.7655 -338.194 12.7787 -346.711 12.7787C-355.023 12.7787 -364.088 11.5012 -372.364 10.5817C-376.186 10.1571 -379.667 6.4557 -383.053 4.76275C-401.67 -4.54503 -403.569 -7.45747 -421.533 -6.45956C-432.625 -5.84342 -444.121 -5.39076 -455.144 -5.39076C-464.198 -5.39076 -473.165 -6.85956 -481.391 -10.9722C-492.259 -16.4054 -503.026 -25.3107 -515.596 -26.7072C-524.213 -27.6646 -533.61 -30.0399 -542.318 -31.873C-551.124 -33.7268 -559.959 -34.5699 -568.565 -36.9795C-586.416 -41.9773 -604.061 -45.9521 -621.891 -50.8144C-631.327 -53.3877 -641.358 -55.075 -649.801 -59.8991C-650.571 -60.339 -654.792 -63.9486 -652.889 -61.5023C-650.862 -58.8971 -650.517 -56.5754 -647.307 -55.3864C-639.312 -52.4258 -631.83 -48.3063 -623.554 -45.7673C-614.939 -43.1243 -605.588 -41.8571 -597.425 -38.0483C-592.646 -35.8181 -585.769 -34.7268 -581.867 -31.0417C-575.529 -25.0568 -566.802 -22.1663 -560.014 -16.6131C-551.672 -9.78848 -538.639 -7.38596 -529.016 -2.77817C-516.738 3.10103 -502.59 7.36602 -491.011 14.4412C-476.516 23.2983 -461.301 30.2902 -445.049 35.4608C-419.676 43.533 -396.934 56.3709 -374.502 70.4934C-366.554 75.4972 -357.206 79.4993 -348.611 83.3189C-337.284 88.3524 -326.645 94.5804 -315.357 99.7664C-302.078 105.867 -288.97 111.412 -275.333 116.451C-239.552 129.673 -204.127 144.658 -168.206 157.065C-153.657 162.091 -139.536 167.69 -124.916 172.563C-113.64 176.321 -101.627 176.797 -90.1769 179.273C-81.8416 181.075 -72.8825 179.86 -64.5235 182.182C-54.8636 184.865 -42.2192 182.716 -32.2192 182.716C-12.3944 182.716 -1.54361 174.829 12.1992 161.578C17.8615 156.119 27.4904 147.178 28.4107 138.896C29.6945 127.343 33.6571 115.437 35.7148 103.863C39.2784 83.8201 34.9532 66.2701 27.4012 47.8113C23.5738 38.4563 19.6116 29.2647 15.109 20.2602C11.4848 13.0125 7.34963 3.72813 1.74777 -2.18439C-3.47029 -7.69183 -6.78375 -14.9266 -11.6133 -20.8288C-14.8025 -24.7264 -20.598 -29.4419 -24.9745 -31.873C-29.8557 -34.5846 -34.0011 -40.1269 -37.3262 -44.4016C-39.9076 -47.7203 -45.0851 -49.8046 -48.2526 -52.6551C-50.9124 -55.0486 -53.7186 -57.6165 -55.9723 -60.4335C-58.9073 -64.1018 -58.9484 -53.3711 -57.0412 -52.4176" stroke="#F5F5F5" stroke-width="0.2" stroke-linecap="round" stroke-linejoin="round"/>
<path d="M-60.4821 -56.3086C-60.4821 -42.4481 -54.5558 -30.4704 -50.8126 -17.3571C-49.7882 -13.7684 -47.6685 -10.3014 -47.6685 -6.07545C-47.6685 -0.0387593 -47.6685 5.99793 -47.6685 12.0346C-47.6685 16.6633 -47.4255 21.3667 -47.6685 25.9883C-47.7796 28.1007 -50.0391 31.5418 -51.1093 33.4698C-52.5794 36.1185 -53.1147 38.7931 -54.6093 41.4857C-57.0294 45.8461 -56.7663 49.0769 -60.2449 52.9456C-63.3841 56.4368 -67.5043 58.3942 -71.6941 60.724C-78.5361 64.5287 -84.8773 70.4104 -92.9907 71.8869C-104.69 74.0161 -119.554 73.9284 -131.016 70.3431C-135.875 68.8233 -146.653 67.7094 -149.347 63.3959C-151.663 59.6864 -159.912 61.272 -163.465 59.6552C-168.949 57.1604 -178.592 56.1366 -184.584 55.9144C-192.253 55.6301 -198.946 54.105 -206.296 52.7674C-214.263 51.3175 -221.61 52.0602 -229.432 49.2642C-237.678 46.3163 -246.237 42.4545 -254.288 38.8731C-264.083 34.5155 -275.529 32.0725 -285.788 29.4322C-298.696 26.1097 -310.659 21.6185 -323.22 16.9036C-331.107 13.9432 -340.279 9.95641 -348.788 9.95641C-357.091 9.95641 -366.147 8.67896 -374.415 7.75946C-378.233 7.33482 -381.71 3.63344 -385.093 1.94049C-403.691 -7.3673 -405.588 -10.2797 -423.534 -9.28182C-434.614 -8.66569 -446.098 -8.21303 -457.11 -8.21303C-466.155 -8.21303 -475.113 -9.68183 -483.331 -13.7945C-494.187 -19.2277 -504.943 -28.1329 -517.5 -29.5295C-526.109 -30.4869 -535.496 -32.8621 -544.195 -34.6953C-552.992 -36.549 -561.818 -37.3921 -570.415 -39.8017C-588.248 -44.7995 -605.875 -48.7743 -623.687 -53.6366C-633.114 -56.21 -643.134 -57.8973 -651.568 -62.7214C-652.337 -63.1613 -656.554 -66.7709 -654.653 -64.3245C-652.629 -61.7193 -652.284 -59.3977 -649.077 -58.2087C-641.091 -55.2481 -633.615 -51.1286 -625.348 -48.5896C-616.742 -45.9466 -607.4 -44.6794 -599.246 -40.8705C-594.472 -38.6404 -587.602 -37.5491 -583.704 -33.864C-577.373 -27.8791 -568.654 -24.9886 -561.873 -19.4353C-553.54 -12.6107 -540.52 -10.2082 -530.907 -5.60043C-518.641 0.278762 -504.508 4.54375 -492.941 11.619C-478.461 20.476 -463.261 27.4679 -447.025 32.6385C-421.679 40.7108 -398.96 53.5486 -376.551 67.6711C-368.611 72.6749 -359.272 76.677 -350.686 80.4966C-339.371 85.5301 -328.742 91.7581 -317.466 96.9441C-304.2 103.045 -291.106 108.59 -277.483 113.629C-241.739 126.851 -206.349 141.835 -170.465 154.243C-155.932 159.269 -141.825 164.868 -127.22 169.741C-115.955 173.499 -103.955 173.975 -92.5161 176.45C-84.1894 178.252 -75.2395 177.038 -66.8889 179.36C-57.239 182.043 -44.6074 179.894 -34.6177 179.894C-14.8131 179.894 -3.97344 172.007 9.75531 158.756C15.4118 153.296 25.0309 144.356 25.9502 136.074C27.2327 124.52 31.1913 112.615 33.2469 101.041C36.8068 80.9978 32.4861 63.4478 24.9418 44.989C21.1183 35.6341 17.1602 26.4424 12.6621 17.438C9.04161 10.1902 4.91071 0.905865 -0.685427 -5.00666C-5.89816 -10.5141 -9.20822 -17.7488 -14.0329 -23.6511C-17.2188 -27.5486 -23.0084 -32.2642 -27.3804 -34.6953C-32.2566 -37.4068 -36.3977 -42.9492 -39.7194 -47.2239C-42.2982 -50.5426 -47.4704 -52.6268 -50.6347 -55.4773C-53.2917 -57.8709 -56.0951 -60.4388 -58.3465 -63.2558C-61.2785 -66.9241 -61.3196 -56.1933 -59.4143 -55.2398" stroke="#F5F5F5" stroke-width="0.2" stroke-linecap="round" stroke-linejoin="round"/>
<path d="M-62.6467 -59.4834C-62.6467 -45.6229 -56.7173 -33.6452 -52.9722 -20.5319C-51.9473 -16.9433 -49.8266 -13.4762 -49.8266 -9.25025C-49.8266 -3.21356 -49.8266 2.82313 -49.8266 8.85981C-49.8266 13.4885 -49.5834 18.1919 -49.8266 22.8135C-49.9377 24.9259 -52.1984 28.367 -53.2691 30.295C-54.74 32.9437 -55.2755 35.6183 -56.7708 38.3109C-59.1922 42.6713 -58.929 45.9021 -62.4093 49.7707C-65.5501 53.262 -69.6724 55.2193 -73.8644 57.5492C-80.7099 61.3538 -87.0544 67.2356 -95.1719 68.7121C-106.877 70.8412 -121.749 70.7536 -133.217 67.1683C-138.078 65.6485 -148.862 64.5346 -151.557 60.2211C-153.874 56.5116 -162.127 58.0972 -165.683 56.4804C-171.169 53.9855 -180.817 52.9618 -186.812 52.7396C-194.485 52.4553 -201.182 50.9302 -208.535 49.5926C-216.506 48.1427 -223.857 48.8854 -231.683 46.0894C-239.933 43.1415 -248.497 39.2797 -256.551 35.6983C-266.352 31.3407 -277.804 28.8977 -288.068 26.2574C-300.983 22.9349 -312.951 18.4437 -325.519 13.7288C-333.41 10.7684 -342.587 6.78161 -351.1 6.78161C-359.408 6.78161 -368.468 5.50416 -376.74 4.58465C-380.56 4.16001 -384.039 0.458631 -387.424 -1.23432C-406.031 -10.5421 -407.929 -13.4545 -425.884 -12.4566C-436.97 -11.8405 -448.46 -11.3878 -459.478 -11.3878C-468.527 -11.3878 -477.489 -12.8566 -485.711 -16.9693C-496.573 -22.4025 -507.335 -31.3077 -519.898 -32.7043C-528.512 -33.6617 -537.903 -36.0369 -546.607 -37.8701C-555.409 -39.7238 -564.239 -40.5669 -572.841 -42.9765C-590.683 -47.9743 -608.318 -51.9491 -626.139 -56.8114C-635.571 -59.3848 -645.596 -61.0721 -654.035 -65.8962C-654.805 -66.3361 -659.023 -69.9457 -657.121 -67.4993C-655.096 -64.8941 -654.751 -62.5725 -651.542 -61.3835C-643.552 -58.4229 -636.073 -54.3034 -627.801 -51.7644C-619.191 -49.1214 -609.845 -47.8542 -601.686 -44.0453C-596.909 -41.8152 -590.036 -40.7239 -586.136 -37.0388C-579.802 -31.0539 -571.079 -28.1634 -564.294 -22.6101C-555.956 -15.7856 -542.93 -13.383 -533.312 -8.77524C-521.04 -2.89604 -506.899 1.36895 -495.327 8.44417C-480.839 17.3012 -465.631 24.2931 -449.388 29.4637C-424.028 37.536 -401.297 50.3738 -378.877 64.4963C-370.933 69.5001 -361.59 73.5022 -352.999 77.3218C-341.678 82.3553 -331.044 88.5833 -319.762 93.7693C-306.49 99.8699 -293.389 105.415 -279.758 110.454C-243.996 123.676 -208.589 138.661 -172.686 151.068C-158.145 156.094 -144.031 161.693 -129.418 166.566C-118.148 170.324 -106.142 170.8 -94.6971 173.275C-86.3661 175.078 -77.4116 173.863 -69.0568 176.185C-59.4019 178.868 -46.7639 176.719 -36.769 176.719C-16.9544 176.719 -6.10911 168.832 7.62666 155.581C13.2861 150.121 22.91 141.181 23.8299 132.899C25.113 121.346 29.0736 109.44 31.1303 97.8663C34.692 77.823 30.3691 60.273 22.8209 41.8142C18.9955 32.4593 15.0353 23.2676 10.5349 14.2631C6.9126 7.01544 2.77959 -2.26894 -2.81941 -8.18146C-8.03481 -13.6889 -11.3466 -20.9236 -16.1737 -26.8259C-19.3612 -30.7234 -25.1538 -35.439 -29.528 -37.8701C-34.4067 -40.5816 -38.55 -46.124 -41.8734 -50.3987C-44.4535 -53.7174 -49.6283 -55.8016 -52.7942 -58.6521C-55.4526 -61.0457 -58.2574 -63.6136 -60.51 -66.4306C-63.4435 -70.0989 -63.4846 -59.3681 -61.5784 -58.4146" stroke="#F5F5F5" stroke-width="0.2" stroke-linecap="round" stroke-linejoin="round"/>
<path d="M-64.4597 -63.0108C-64.4597 -49.1502 -58.5273 -37.1725 -54.7803 -24.0593C-53.7549 -20.4706 -51.633 -17.0035 -51.633 -12.7776C-51.633 -6.74091 -51.633 -0.704219 -51.633 5.33247C-51.633 9.96116 -51.3898 14.6646 -51.633 19.2861C-51.7442 21.3986 -54.006 24.8396 -55.0773 26.7677C-56.5489 29.4164 -57.0848 32.0909 -58.5809 34.7836C-61.0035 39.1439 -60.7401 42.3748 -64.2222 46.2434C-67.3646 49.7346 -71.489 51.692 -75.6831 54.0218C-82.5322 57.8265 -88.8799 63.7082 -97.0016 65.1848C-108.713 67.3139 -123.592 67.2262 -135.066 63.6409C-139.93 62.1212 -150.719 61.0072 -153.415 56.6938C-155.734 52.9843 -163.991 54.5698 -167.548 52.953C-173.038 50.4582 -182.69 49.4344 -188.689 49.2123C-196.365 48.928 -203.066 47.4028 -210.423 46.0653C-218.398 44.6154 -225.752 45.3581 -233.582 42.562C-241.837 39.6142 -250.405 35.7523 -258.464 32.171C-268.269 27.8133 -279.727 25.3703 -289.996 22.73C-302.918 19.4076 -314.892 14.9163 -327.466 10.2014C-335.361 7.24107 -344.543 3.25426 -353.06 3.25426C-361.372 3.25426 -370.437 1.97682 -378.714 1.05731C-382.536 0.632669 -386.016 -3.06871 -389.403 -4.76166C-408.02 -14.0694 -409.919 -16.9819 -427.883 -15.984C-438.974 -15.3678 -450.471 -14.9152 -461.493 -14.9152C-470.548 -14.9152 -479.515 -16.384 -487.741 -20.4966C-498.608 -25.9298 -509.375 -34.8351 -521.945 -36.2316C-530.563 -37.189 -539.959 -39.5643 -548.668 -41.3974C-557.474 -43.2512 -566.308 -44.0943 -574.915 -46.5039C-592.766 -51.5017 -610.41 -55.4765 -628.241 -60.3388C-637.677 -62.9121 -647.707 -64.5994 -656.15 -69.4235C-656.92 -69.8634 -661.141 -73.473 -659.238 -71.0267C-657.212 -68.4215 -656.867 -66.0998 -653.656 -64.9108C-645.662 -61.9503 -638.179 -57.8307 -629.903 -55.2917C-621.288 -52.6487 -611.937 -51.3815 -603.775 -47.5727C-598.996 -45.3426 -592.119 -44.2512 -588.216 -40.5662C-581.879 -34.5812 -573.152 -31.6907 -566.364 -26.1375C-558.022 -19.3129 -544.989 -16.9104 -535.366 -12.3026C-523.087 -6.42339 -508.939 -2.1584 -497.361 4.91683C-482.866 13.7739 -467.65 20.7658 -451.398 25.9364C-426.026 34.0086 -403.284 46.8465 -380.852 60.969C-372.904 65.9727 -363.555 69.9749 -354.961 73.7945C-343.634 78.828 -332.994 85.056 -321.706 90.242C-308.427 96.3426 -295.32 101.887 -281.682 106.927C-245.902 120.149 -210.476 135.133 -174.556 147.541C-160.007 152.566 -145.886 158.165 -131.265 163.038C-119.99 166.797 -107.977 167.273 -96.5265 169.748C-88.1913 171.55 -79.2322 170.336 -70.8731 172.658C-61.2132 175.341 -48.5688 173.192 -38.5688 173.192C-18.744 173.192 -7.89322 165.304 5.84958 152.054C11.5119 146.594 21.1407 137.654 22.0611 129.372C23.3449 117.818 27.3075 105.913 29.3652 94.339C32.9288 74.2956 28.6036 56.7457 21.0516 38.2869C17.2242 28.9319 13.262 19.7403 8.75934 10.7358C5.13515 3.48809 1.00002 -5.79628 -4.60184 -11.7088C-9.8199 -17.2162 -13.1334 -24.451 -17.963 -30.3533C-21.1521 -34.2508 -26.9476 -38.9663 -31.3241 -41.3974C-36.2053 -44.109 -40.3507 -49.6513 -43.6758 -53.926C-46.2572 -57.2448 -51.4347 -59.329 -54.6022 -62.1795C-57.262 -64.573 -60.0682 -67.1409 -62.3219 -69.9579C-65.2569 -73.6262 -65.298 -62.8955 -63.3908 -61.942" stroke="#F5F5F5" stroke-width="0.2" stroke-linecap="round" stroke-linejoin="round"/>
<path d="M-66.575 -65.833C-66.575 -51.9725 -60.6425 -39.9948 -56.8955 -26.8815C-55.8701 -23.2929 -53.7483 -19.8258 -53.7483 -15.5999C-53.7483 -9.56317 -53.7483 -3.52648 -53.7483 2.5102C-53.7483 7.1389 -53.505 11.8423 -53.7483 16.4639C-53.8594 18.5763 -56.1213 22.0174 -57.1925 23.9454C-58.6642 26.5941 -59.2 29.2687 -60.6961 31.9613C-63.1187 36.3217 -62.8553 39.5525 -66.3374 43.4211C-69.4798 46.9124 -73.6043 48.8697 -77.7984 51.1996C-84.6474 55.0042 -90.9951 60.886 -99.1168 62.3625C-110.828 64.4916 -125.707 64.404 -137.181 60.8187C-142.045 59.2989 -152.834 58.1849 -155.53 53.8715C-157.849 50.162 -166.106 51.7476 -169.664 50.1308C-175.153 47.6359 -184.806 46.6121 -190.804 46.39C-198.48 46.1057 -205.181 44.5806 -212.538 43.243C-220.513 41.7931 -227.868 42.5358 -235.697 39.7397C-243.952 36.7919 -252.52 32.9301 -260.579 29.3487C-270.384 24.9911 -281.842 22.5481 -292.111 19.9077C-305.033 16.5853 -317.007 12.0941 -329.582 7.37914C-337.477 4.41881 -346.658 0.431998 -355.176 0.431998C-363.488 0.431998 -372.553 -0.845451 -380.829 -1.76496C-384.651 -2.1896 -388.132 -5.89098 -391.518 -7.58393C-410.135 -16.8917 -412.034 -19.8042 -429.998 -18.8062C-441.089 -18.1901 -452.586 -17.7374 -463.609 -17.7374C-472.663 -17.7374 -481.63 -19.2062 -489.856 -23.3189C-500.723 -28.7521 -511.49 -37.6573 -524.06 -39.0539C-532.678 -40.0113 -542.074 -42.3865 -550.783 -44.2197C-559.589 -46.0735 -568.423 -46.9166 -577.03 -49.3261C-594.881 -54.3239 -612.526 -58.2988 -630.356 -63.161C-639.792 -65.7344 -649.823 -67.4217 -658.266 -72.2458C-659.036 -72.6857 -663.257 -76.2953 -661.354 -73.849C-659.327 -71.2438 -658.982 -68.9221 -655.772 -67.7331C-647.777 -64.7725 -640.295 -60.653 -632.018 -58.114C-623.404 -55.471 -614.053 -54.2038 -605.89 -50.3949C-601.111 -48.1648 -594.234 -47.0735 -590.332 -43.3884C-583.994 -37.4035 -575.267 -34.513 -568.479 -28.9597C-560.137 -22.1352 -547.104 -19.7326 -537.481 -15.1248C-525.203 -9.24565 -511.055 -4.98066 -499.476 2.09456C-484.981 10.9516 -469.766 17.9435 -453.514 23.1141C-428.141 31.1864 -405.399 44.0242 -382.967 58.1467C-375.019 63.1505 -365.671 67.1526 -357.076 70.9722C-345.749 76.0057 -335.11 82.2337 -323.821 87.4197C-310.542 93.5203 -297.435 99.0652 -283.797 104.105C-248.017 117.327 -212.591 132.311 -176.671 144.719C-162.122 149.744 -148.001 155.343 -133.381 160.216C-122.105 163.974 -110.092 164.45 -98.6417 166.926C-90.3065 168.728 -81.3474 167.514 -72.9883 169.835C-63.3285 172.518 -50.684 170.37 -40.684 170.37C-20.8592 170.37 -10.0085 162.482 3.73434 149.231C9.39665 143.772 19.0255 134.831 19.9458 126.549C21.2297 114.996 25.1922 103.09 27.25 91.5167C30.8136 71.4734 26.4884 53.9234 18.9363 35.4646C15.109 26.1097 11.1468 16.918 6.64411 7.91354C3.01991 0.665828 -1.11521 -8.61855 -6.71707 -14.5311C-11.9351 -20.0385 -15.2486 -27.2732 -20.0782 -33.1755C-23.2674 -37.073 -29.0629 -41.7886 -33.4393 -44.2197C-38.3205 -46.9312 -42.4659 -52.4736 -45.791 -56.7483C-48.3725 -60.067 -53.5499 -62.1512 -56.7174 -65.0017C-59.3772 -67.3953 -62.1834 -69.9632 -64.4372 -72.7802C-67.3721 -76.4485 -67.4133 -65.7177 -65.5061 -64.7642" stroke="#F5F5F5" stroke-width="0.2" stroke-linecap="round" stroke-linejoin="round"/>
</g>
<rect width="100" height="100" fill="black" fill-opacity="0.6"/>
<defs>
<clipPath id="clip0_424_1795">
<rect width="100" height="100" fill="white" transform="matrix(-1 0 0 1 100 0)"/>
</clipPath>
</defs>
</svg>
